<mxfile host="app.diagrams.net" modified="2022-08-30T17:35:36.196Z" agent="5.0 (Windows NT 10.0; Win64; x64) AppleWebKit/537.36 (KHTML, like Gecko) Chrome/104.0.0.0 Safari/537.36" etag="GEuVmzazDvUmTQMjnQ8X" version="20.2.7" type="github">
  <diagram id="kWV1w4FAC4IXIcKnAsgC" name="第 1 页">
    <mxGraphModel dx="1385" dy="661" grid="1" gridSize="10" guides="1" tooltips="1" connect="1" arrows="1" fold="1" page="1" pageScale="1" pageWidth="827" pageHeight="1169" math="0" shadow="0">
      <root>
        <mxCell id="0" />
        <mxCell id="1" parent="0" />
        <mxCell id="hsqiQFNtVwB-LhybfyuJ-1" value="" style="endArrow=none;dashed=1;rounded=0;html=1;strokeColor=#666666;" parent="1" edge="1">
          <mxGeometry width="50" height="50" relative="1" as="geometry">
            <mxPoint x="40" y="40" as="sourcePoint" />
            <mxPoint x="790" y="40" as="targetPoint" />
          </mxGeometry>
        </mxCell>
        <mxCell id="hsqiQFNtVwB-LhybfyuJ-2" value="" style="endArrow=none;dashed=1;html=1;rounded=0;strokeColor=#666666;" parent="1" edge="1">
          <mxGeometry width="50" height="50" relative="1" as="geometry">
            <mxPoint x="38" y="571" as="sourcePoint" />
            <mxPoint x="788" y="571" as="targetPoint" />
          </mxGeometry>
        </mxCell>
        <mxCell id="hsqiQFNtVwB-LhybfyuJ-3" value="" style="endArrow=none;dashed=1;html=1;rounded=0;strokeColor=#666666;" parent="1" edge="1">
          <mxGeometry width="50" height="50" relative="1" as="geometry">
            <mxPoint x="40" y="40" as="sourcePoint" />
            <mxPoint x="40" y="1130" as="targetPoint" />
          </mxGeometry>
        </mxCell>
        <mxCell id="hsqiQFNtVwB-LhybfyuJ-4" value="" style="endArrow=none;dashed=1;html=1;rounded=0;strokeColor=#666666;" parent="1" edge="1">
          <mxGeometry width="50" height="50" relative="1" as="geometry">
            <mxPoint x="784" y="210" as="sourcePoint" />
            <mxPoint x="784" y="1300" as="targetPoint" />
          </mxGeometry>
        </mxCell>
        <mxCell id="hsqiQFNtVwB-LhybfyuJ-5" value="&lt;span style=&quot;font-size: 48px;&quot;&gt;王振&lt;/span&gt;" style="text;html=1;strokeColor=none;fillColor=none;align=center;verticalAlign=middle;whiteSpace=wrap;rounded=0;fontFamily=Source Han Sans;fontSize=50;fontStyle=1;spacing=2;fontColor=#13273E;" parent="1" vertex="1">
          <mxGeometry x="308" y="57" width="211" height="60" as="geometry" />
        </mxCell>
        <mxCell id="hsqiQFNtVwB-LhybfyuJ-15" value="" style="endArrow=none;dashed=1;html=1;rounded=0;strokeColor=#666666;" parent="1" edge="1">
          <mxGeometry width="50" height="50" relative="1" as="geometry">
            <mxPoint x="280" y="170" as="sourcePoint" />
            <mxPoint x="279" y="2330" as="targetPoint" />
          </mxGeometry>
        </mxCell>
        <mxCell id="hsqiQFNtVwB-LhybfyuJ-16" value="" style="endArrow=none;dashed=1;rounded=0;html=1;strokeColor=#666666;" parent="1" edge="1">
          <mxGeometry width="50" height="50" relative="1" as="geometry">
            <mxPoint x="40" y="169" as="sourcePoint" />
            <mxPoint x="790" y="169" as="targetPoint" />
          </mxGeometry>
        </mxCell>
        <mxCell id="hsqiQFNtVwB-LhybfyuJ-7" value="admin@5ibug.net" style="text;html=1;strokeColor=none;fillColor=none;align=left;verticalAlign=middle;whiteSpace=wrap;rounded=0;fontFamily=Inter;fontSize=13;fontColor=#404964;" parent="1" vertex="1">
          <mxGeometry x="437" y="124" width="170" height="20" as="geometry" />
        </mxCell>
        <mxCell id="hsqiQFNtVwB-LhybfyuJ-9" value="" style="shape=image;aspect=fixed;image=data:image/svg+xml,PD94bWwgdmVyc2lvbj0iMS4wIiBzdGFuZGFsb25lPSJubyI/PjwhRE9DVFlQRSBzdmcgUFVCTElDICItLy9XM0MvL0RURCBTVkcgMS4xLy9FTiIgImh0dHA6Ly93d3cudzMub3JnL0dyYXBoaWNzL1NWRy8xLjEvRFREL3N2ZzExLmR0ZCI+PHN2ZyB0PSIxNjUzMzczOTQ3NzM5IiBjbGFzcz0iaWNvbiIgdmlld0JveD0iMCAwIDEwMjQgMTAyNCIgdmVyc2lvbj0iMS4xIiB4bWxucz0iaHR0cDovL3d3dy53My5vcmcvMjAwMC9zdmciIHAtaWQ9IjcwMjAiIHhtbG5zOnhsaW5rPSJodHRwOi8vd3d3LnczLm9yZy8xOTk5L3hsaW5rIiB3aWR0aD0iMjAwIiBoZWlnaHQ9IjIwMCI+PGRlZnM+PHN0eWxlIHR5cGU9InRleHQvY3NzIj5AZm9udC1mYWNlIHsgZm9udC1mYW1pbHk6IGZlZWRiYWNrLWljb25mb250OyBzcmM6IHVybCgiLy9hdC5hbGljZG4uY29tL3QvZm9udF8xMDMxMTU4X3U2OXc4eWh4ZHUud29mZjI/dD0xNjMwMDMzNzU5OTQ0IikgZm9ybWF0KCJ3b2ZmMiIpLCB1cmwoIi8vYXQuYWxpY2RuLmNvbS90L2ZvbnRfMTAzMTE1OF91Njl3OHloeGR1LndvZmY/dD0xNjMwMDMzNzU5OTQ0IikgZm9ybWF0KCJ3b2ZmIiksIHVybCgiLy9hdC5hbGljZG4uY29tL3QvZm9udF8xMDMxMTU4X3U2OXc4eWh4ZHUudHRmP3Q9MTYzMDAzMzc1OTk0NCIpIGZvcm1hdCgidHJ1ZXR5cGUiKTsgfQo8L3N0eWxlPjwvZGVmcz48cGF0aCBkPSJNODc0LjY2NjY2NyAzNzUuMTg5MzMzVjc0Ni42NjY2NjdhNjQgNjQgMCAwIDEtNjQgNjRIMjEzLjMzMzMzM2E2NCA2NCAwIDAgMS02NC02NFYzNzUuMTg5MzMzbDY0IDU0LjI1MDY2N1Y3NDYuNjY2NjY3aDU5Ny4zMzMzMzRWNDI5LjQ0bDY0LTU0LjI1MDY2N3pNODEwLjY2NjY2NyAyMTMuMzMzMzMzYTY0Ljc4OTMzMyA2NC43ODkzMzMgMCAwIDEgMjIuODI2NjY2IDQuMTgxMzM0IDYzLjYxNiA2My42MTYgMCAwIDEgMjYuNzk0NjY3IDE5LjQxMzMzMyA2NC4zMiA2NC4zMiAwIDAgMSA5LjM0NCAxNS40NjY2NjdjMi43NzMzMzMgNi41NzA2NjcgNC40OCAxMy42OTYgNC45MDY2NjcgMjEuMTg0TDg3NC42NjY2NjcgMjc3LjMzMzMzM3YyMS4zMzMzMzRMNTUzLjUzNiA1NzIuNTg2NjY3YTY0IDY0IDAgMCAxLTc5Ljg5MzMzMyAyLjUzODY2NmwtMy4xNzg2NjctMi41NkwxNDkuMzMzMzMzIDI5OC42NjY2Njd2LTIxLjMzMzMzNGE2My43ODY2NjcgNjMuNzg2NjY3IDAgMCAxIDM1LjEzNi01Ny4xMzA2NjZBNjMuODcyIDYzLjg3MiAwIDAgMSAyMTMuMzMzMzMzIDIxMy4zMzMzMzNoNTk3LjMzMzMzNHogbS05LjYgNjRoLTU3OC4xMzMzMzRMNTEyIDUyMy44ODI2NjcgODAxLjA2NjY2NyAyNzcuMzMzMzMzeiIgcC1pZD0iNzAyMSIgZmlsbD0iIzRENEQ0RCI+PC9wYXRoPjwvc3ZnPg==;" parent="1" vertex="1">
          <mxGeometry x="416" y="126" width="18" height="18" as="geometry" />
        </mxCell>
        <mxCell id="hsqiQFNtVwB-LhybfyuJ-8" value="(+86) 156-3606-9029" style="text;html=1;strokeColor=none;fillColor=none;align=left;verticalAlign=middle;whiteSpace=wrap;rounded=0;fontFamily=Inter;fontSize=13;fontColor=#404964;fontStyle=0" parent="1" vertex="1">
          <mxGeometry x="268" y="125" width="142" height="20" as="geometry" />
        </mxCell>
        <mxCell id="hsqiQFNtVwB-LhybfyuJ-27" value="技能" style="text;html=1;strokeColor=none;fillColor=none;align=left;verticalAlign=middle;whiteSpace=wrap;rounded=0;fontFamily=Source Han Sans;fontSize=21;fontColor=#13273E;fontStyle=1" parent="1" vertex="1">
          <mxGeometry x="61" y="380" width="50" height="30" as="geometry" />
        </mxCell>
        <mxCell id="hsqiQFNtVwB-LhybfyuJ-29" value="" style="endArrow=none;html=1;rounded=0;fontFamily=宋体-简;fontSize=16;fontColor=#2B4259;strokeColor=#404964;" parent="1" edge="1">
          <mxGeometry width="50" height="50" relative="1" as="geometry">
            <mxPoint x="62" y="412" as="sourcePoint" />
            <mxPoint x="262" y="412" as="targetPoint" />
          </mxGeometry>
        </mxCell>
        <mxCell id="hsqiQFNtVwB-LhybfyuJ-23" value="奖项" style="text;html=1;strokeColor=none;fillColor=none;align=left;verticalAlign=middle;whiteSpace=wrap;rounded=0;fontFamily=Source Han Sans;fontSize=21;fontColor=#13273E;fontStyle=1" parent="1" vertex="1">
          <mxGeometry x="61" y="575" width="50" height="30" as="geometry" />
        </mxCell>
        <mxCell id="hsqiQFNtVwB-LhybfyuJ-25" value="" style="endArrow=none;html=1;rounded=0;fontFamily=宋体-简;fontSize=16;fontColor=#2B4259;strokeColor=#404964;" parent="1" edge="1">
          <mxGeometry width="50" height="50" relative="1" as="geometry">
            <mxPoint x="62" y="607" as="sourcePoint" />
            <mxPoint x="262" y="607" as="targetPoint" />
          </mxGeometry>
        </mxCell>
        <mxCell id="hsqiQFNtVwB-LhybfyuJ-42" value="第46届世界技能大赛黑龙江省选拔赛网站设计与开发项目第一名" style="text;html=1;strokeColor=none;fillColor=none;align=left;verticalAlign=middle;whiteSpace=wrap;rounded=0;fontFamily=Source Han Sans;fontSize=12;fontColor=#6D7684;fontStyle=0" parent="1" vertex="1">
          <mxGeometry x="61" y="611" width="143" height="55.5" as="geometry" />
        </mxCell>
        <mxCell id="csp5jKro6aII4pgKmo1C-1" value="工作经验" style="text;html=1;strokeColor=none;fillColor=none;align=left;verticalAlign=middle;whiteSpace=wrap;rounded=0;fontFamily=Source Han Sans;fontSize=21;fontColor=#13273E;fontStyle=1" parent="1" vertex="1">
          <mxGeometry x="303" y="189" width="107" height="30" as="geometry" />
        </mxCell>
        <mxCell id="csp5jKro6aII4pgKmo1C-3" value="" style="endArrow=none;html=1;rounded=0;fontFamily=宋体-简;fontSize=16;fontColor=#2B4259;strokeColor=#404964;" parent="1" edge="1">
          <mxGeometry width="50" height="50" relative="1" as="geometry">
            <mxPoint x="303" y="221" as="sourcePoint" />
            <mxPoint x="769" y="221" as="targetPoint" />
          </mxGeometry>
        </mxCell>
        <mxCell id="csp5jKro6aII4pgKmo1C-4" value="项目" style="text;html=1;strokeColor=none;fillColor=none;align=left;verticalAlign=middle;whiteSpace=wrap;rounded=0;fontFamily=Source Han Sans;fontSize=21;fontColor=#13273E;fontStyle=1" parent="1" vertex="1">
          <mxGeometry x="309" y="731.77" width="50" height="30" as="geometry" />
        </mxCell>
        <mxCell id="csp5jKro6aII4pgKmo1C-6" value="" style="endArrow=none;html=1;rounded=0;fontFamily=宋体-简;fontSize=16;fontColor=#2B4259;strokeColor=#404964;" parent="1" edge="1">
          <mxGeometry width="50" height="50" relative="1" as="geometry">
            <mxPoint x="309" y="763.77" as="sourcePoint" />
            <mxPoint x="775" y="763.77" as="targetPoint" />
          </mxGeometry>
        </mxCell>
        <mxCell id="csp5jKro6aII4pgKmo1C-24" value="黑龙江大数据产业发展有限公司 - 联合实验室高级经理" style="text;html=1;strokeColor=none;fillColor=none;align=left;verticalAlign=middle;whiteSpace=wrap;rounded=0;fontSize=15;fontFamily=Source Han Sans;fontStyle=1;fontColor=#404964;" parent="1" vertex="1">
          <mxGeometry x="303" y="238" width="416" height="20" as="geometry" />
        </mxCell>
        <mxCell id="csp5jKro6aII4pgKmo1C-25" value="云南赶马网络科技有限公司 - 研发工程师" style="text;html=1;strokeColor=none;fillColor=none;align=left;verticalAlign=middle;whiteSpace=wrap;rounded=0;fontSize=15;fontFamily=Source Han Sans;fontStyle=1;fontColor=#404964;" parent="1" vertex="1">
          <mxGeometry x="303" y="414.5" width="416" height="20" as="geometry" />
        </mxCell>
        <mxCell id="csp5jKro6aII4pgKmo1C-26" value="2019.9 - 2020.6" style="text;html=1;strokeColor=none;fillColor=none;align=right;verticalAlign=middle;whiteSpace=wrap;rounded=0;fontFamily=Source Han Sans;fontSize=15;fontColor=#6D7684;fontStyle=0" parent="1" vertex="1">
          <mxGeometry x="642" y="417" width="127" height="14" as="geometry" />
        </mxCell>
        <mxCell id="csp5jKro6aII4pgKmo1C-27" value="2021.5 - 至今" style="text;html=1;strokeColor=none;fillColor=none;align=right;verticalAlign=middle;whiteSpace=wrap;rounded=0;fontFamily=Source Han Sans;fontSize=15;fontColor=#6D7684;fontStyle=0" parent="1" vertex="1">
          <mxGeometry x="642" y="241" width="127" height="14" as="geometry" />
        </mxCell>
        <mxCell id="csp5jKro6aII4pgKmo1C-29" value="&lt;font style=&quot;font-size: 12px;&quot;&gt;&lt;span style=&quot;line-height: 1.6; font-size: 12px;&quot;&gt;云南赶马网络科技有限公司主要开发维护商城项目及短视频项目，原生开发ui，PHP开发接口，对称数据库采用MySQL，非对称数据库采用redis。&lt;br&gt;&amp;nbsp; &amp;nbsp; •&amp;nbsp; think PHP 计划任务性能优化&lt;br&gt;&amp;nbsp; &amp;nbsp; •&amp;nbsp; 开发所需接口，开发活动折扣相关逻辑&lt;br&gt;&amp;nbsp; &amp;nbsp; •&amp;nbsp; 接口速度优化，首页仪表盘接口性能优化了 80%&lt;br&gt;&amp;nbsp; &amp;nbsp; •&amp;nbsp; 对项目进行安全测试，修复非授权访问等各类安全问题&lt;br&gt;&lt;/span&gt;&lt;/font&gt;" style="text;html=1;strokeColor=none;fillColor=none;align=left;verticalAlign=middle;whiteSpace=wrap;rounded=0;fontFamily=Source Han Sans;fontSize=12;fontColor=#6D7684;fontStyle=0" parent="1" vertex="1">
          <mxGeometry x="303" y="440.5" width="466" height="114" as="geometry" />
        </mxCell>
        <mxCell id="csp5jKro6aII4pgKmo1C-30" value="&lt;p style=&quot;line-height: 1.6;&quot;&gt;黑龙江大数据产业发展有限公司是黑龙江省建投集团二级单位，国有控股，在单位内担任联合实验室高级经理，主要负责需求分析，全栈开发(包含小程序)，项目任务拆分按人员分配任务，协助项目课题申报，部分服务器运维等&lt;br&gt;&amp;nbsp; &amp;nbsp; •&amp;nbsp; 工程质量检测平台开发，物联网设备接入&lt;br&gt;&amp;nbsp; &amp;nbsp; •&amp;nbsp; 2022年重大成果转化课题申报&lt;br&gt;&amp;nbsp; &amp;nbsp; •&amp;nbsp; 黑龙江省中药产业大数据综合服务平台开发&lt;br&gt;&amp;nbsp; &amp;nbsp; •&amp;nbsp; 法务平台，协同办公，HCM，内网gitlab等平台维护&lt;br&gt;&lt;/p&gt;" style="text;html=1;strokeColor=none;fillColor=none;align=left;verticalAlign=middle;whiteSpace=wrap;rounded=0;fontFamily=Source Han Sans;fontSize=12;fontColor=#6D7684;fontStyle=0" parent="1" vertex="1">
          <mxGeometry x="303" y="267" width="466" height="140" as="geometry" />
        </mxCell>
        <mxCell id="8V30FOKsPtYKY0wyYov8-1" value="" style="shape=image;aspect=fixed;image=data:image/svg+xml,PD94bWwgdmVyc2lvbj0iMS4wIiBzdGFuZGFsb25lPSJubyI/PjwhRE9DVFlQRSBzdmcgUFVCTElDICItLy9XM0MvL0RURCBTVkcgMS4xLy9FTiIgImh0dHA6Ly93d3cudzMub3JnL0dyYXBoaWNzL1NWRy8xLjEvRFREL3N2ZzExLmR0ZCI+PHN2ZyB0PSIxNjUzNDE1ODM0MTI0IiBjbGFzcz0iaWNvbiIgdmlld0JveD0iMCAwIDEwMjQgMTAyNCIgdmVyc2lvbj0iMS4xIiB4bWxucz0iaHR0cDovL3d3dy53My5vcmcvMjAwMC9zdmciIHAtaWQ9Ijc0NzEiIHhtbG5zOnhsaW5rPSJodHRwOi8vd3d3LnczLm9yZy8xOTk5L3hsaW5rIiB3aWR0aD0iMjAwIiBoZWlnaHQ9IjIwMCI+PGRlZnM+PHN0eWxlIHR5cGU9InRleHQvY3NzIj5AZm9udC1mYWNlIHsgZm9udC1mYW1pbHk6IGZlZWRiYWNrLWljb25mb250OyBzcmM6IHVybCgiLy9hdC5hbGljZG4uY29tL3QvZm9udF8xMDMxMTU4X3U2OXc4eWh4ZHUud29mZjI/dD0xNjMwMDMzNzU5OTQ0IikgZm9ybWF0KCJ3b2ZmMiIpLCB1cmwoIi8vYXQuYWxpY2RuLmNvbS90L2ZvbnRfMTAzMTE1OF91Njl3OHloeGR1LndvZmY/dD0xNjMwMDMzNzU5OTQ0IikgZm9ybWF0KCJ3b2ZmIiksIHVybCgiLy9hdC5hbGljZG4uY29tL3QvZm9udF8xMDMxMTU4X3U2OXc4eWh4ZHUudHRmP3Q9MTYzMDAzMzc1OTk0NCIpIGZvcm1hdCgidHJ1ZXR5cGUiKTsgfQo8L3N0eWxlPjwvZGVmcz48cGF0aCBkPSJNOTQyLjA4IDczOC4zMDRjLTI1LjYtMjMuNTUyLTU1LjI5Ni00Ny4xMDQtNzYuOC02MS40NC0yNy42NDgtMTkuNDU2LTU3LjM0NC0zOC45MTItODQuOTkyLTUxLjItNDMuMDA4LTIxLjUwNC01OS4zOTItMjUuNi03MC42NTYtMjUuNi0xOS40NTYgMC0zNS44NCAxMC4yNC01MS4yIDI5LjY5Ni04LjE5MiAxMi4yODgtMTcuNDA4IDI5LjY5Ni0yMy41NTIgNDUuMDU2LTQuMDk2IDEwLjI0LTEyLjI4OCAyNy42NDgtMTcuNDA4IDMzLjc5Mi04LjE5Mi0yLjA0OC0zMS43NDQtMTIuMjg4LTcwLjY1Ni0zNy44ODgtMzUuODQtMjUuNi03NC43NTItNTcuMzQ0LTEwNC40NDgtODQuOTkyLTI5LjY5Ni0yOS42OTYtNTkuMzkyLTY4LjYwOC04NC45OTItMTA0LjQ0OC0yNS42LTM3Ljg4OC0zNS44NC02MS40NC0zNy44ODgtNzAuNjU2IDYuMTQ0LTQuMDk2IDIzLjU1Mi0xMi4yODggMzMuNzkyLTE3LjQwOCAxNS4zNi02LjE0NCAzMS43NDQtMTIuMjg4IDQ1LjA1Ni0yMy41NTIgMjEuNTA0LTE1LjM2IDI5LjY5Ni0zMS43NDQgMjkuNjk2LTUxLjIgMC0xMC4yNC0yLjA0OC0yNy42NDgtMjUuNi03MC42NTYtMTIuMjg4LTI1LjYtMzEuNzQ0LTU1LjI5Ni01MS4yLTg0Ljk5Mi0xNS4zNi0yMS41MDQtMzguOTEyLTUxLjItNjEuNDQtNzYuOC0yNy42NDgtMjcuNjQ4LTQ3LjEwNC00MC45Ni02Ni41Ni00MC45Ni00Ny4xMDQgMC0xMDAuMzUyIDY4LjYwOC0xMTQuNjg4IDg3LjA0LTE5LjQ1NiAyNS42LTY2LjU2IDk2LjI1Ni02Ni41NiAxNTkuNzQ0IDAgNTkuMzkyIDQwLjk2IDEzOC4yNCA3NC43NTIgMTk0LjU2IDQ1LjA1NiA3Mi43MDQgMTA4LjU0NCAxNTMuNiAxNzcuMTUyIDIyNC4yNTZsMjEuNTA0IDIxLjUwNCAwIDBjNzAuNjU2IDY4LjYwOCAxNDkuNTA0IDEzMi4wOTYgMjI0LjI1NiAxNzcuMTUyIDIzLjU1MiAxNS4zNiA1MS4yIDI5LjY5NiA3OC44NDggNDMuMDA4bDAgMGM0LjA5NiAyLjA0OCA2LjE0NCAyLjA0OCAxMC4yNCAyLjA0OCAxNS4zNiAwIDI3LjY0OC0xMi4yODggMjcuNjQ4LTI3LjY0OCAwLTEwLjI0LTYuMTQ0LTIxLjUwNC0xNy40MDgtMjUuNi0yMS41MDQtMTAuMjQtNDUuMDU2LTIzLjU1Mi03MC42NTYtMzguOTEyLTcwLjY1Ni00My4wMDgtMTQ1LjQwOC0xMDIuNC0yMTIuOTkyLTE2OC45NmwtMjEuNTA0LTIxLjUwNGMtNjYuNTYtNjguNjA4LTEyNS45NTItMTQzLjM2LTE2OC45Ni0yMTIuOTkyLTQzLjAwOC02OC42MDgtNjYuNTYtMTI4LTY2LjU2LTE2My44NCAwLTMxLjc0NCAxOS40NTYtNzguODQ4IDUzLjI0OC0xMjMuOTA0IDE1LjM2LTE5LjQ1NiAyOS42OTYtMzcuODg4IDQ1LjA1Ni01MS4yIDE1LjM2LTEzLjMxMiAyMy41NTItMTcuNDA4IDI3LjY0OC0xNy40MDggMTAuMjQgNC4wOTYgNDMuMDA4IDMxLjc0NCA4Ny4wNCA5OC4zMDQgMTcuNDA4IDI1LjYgMzMuNzkyIDUxLjIgNDUuMDU2IDc0Ljc1MiAxNS4zNiAyNy42NDggMTcuNDA4IDQwLjk2IDE3LjQwOCA0My4wMDggMCAwLTQuMDk2IDQuMDk2LTEwLjI0IDguMTkyLTguMTkyIDQuMDk2LTIxLjUwNCAxMC4yNC0zMS43NDQgMTUuMzYtMTUuMzYgNi4xNDQtMjcuNjQ4IDEyLjI4OC00MC45NiAxOS40NTYtMTkuNDU2IDEyLjI4OC0yNy42NDggMjcuNjQ4LTI3LjY0OCA0NS4wNTYgMCA4LjE5MiAwIDMzLjc5MiA0OS4xNTIgMTA0LjQ0OCAyNS42IDM3Ljg4OCA1OS4zOTIgODAuODk2IDkyLjE2IDExMi42NGwwIDBjMzEuNzQ0IDMxLjc0NCA3NC43NTIgNjYuNTYgMTEyLjY0IDkyLjE2IDcwLjY1NiA0Ny4xMDQgOTYuMjU2IDQ5LjE1MiAxMDQuNDQ4IDQ5LjE1MmwwIDBjMTcuNDA4IDAgMzEuNzQ0LTguMTkyIDQ1LjA1Ni0yNy42NDggOC4xOTItMTAuMjQgMTIuMjg4LTI1LjYgMTkuNDU2LTQwLjk2IDQuMDk2LTEwLjI0IDEwLjI0LTIzLjU1MiAxNS4zNi0zMS43NDQgNi4xNDQtNC4wOTYgMTAuMjQtNi4xNDQgMTAuMjQtNi4xNDQgMi4wNDggMCAxNS4zNiAyLjA0OCA0My4wMDggMTcuNDA4IDIxLjUwNCAxMi4yODggNDkuMTUyIDI3LjY0OCA3NC43NTIgNDUuMDU2IDYzLjQ4OCA0NS4wNTYgOTQuMjA4IDc2LjggOTguMzA0IDg3LjA0LTIuMDQ4IDQuMDk2LTYuMTQ0IDEyLjI4OC0xNy40MDggMjcuNjQ4LTEyLjI4OCAxNS4zNi0zMS43NDQgMzEuNzQ0LTUxLjIgNDUuMDU2LTI5LjY5NiAyMS41MDQtNjEuNDQgMzguOTEyLTg3LjA0IDQ3LjEwNGwwIDBjLTEwLjI0IDQuMDk2LTE3LjQwOCAxNS4zNi0xNy40MDggMjUuNiAwIDE1LjM2IDEyLjI4OCAyNy42NDggMjcuNjQ4IDI3LjY0OCAyLjA0OCAwIDQuMDk2IDAgNi4xNDQtMi4wNDhsMCAwYzIuMDQ4IDAgMi4wNDggMCA0LjA5Ni0yLjA0OGwwIDBjNDUuMDU2LTE1LjM2IDgyLjk0NC00MC45NiAxMDIuNC01NS4yOTYgMjEuNTA0LTE1LjM2IDg3LjA0LTcwLjY1NiA4Ny4wNC0xMTUuNzEyQzk4Mi4wMTYgNzg1LjQwOCA5NjkuNzI4IDc2NS45NTIgOTQyLjA4IDczOC4zMDR6IiBwLWlkPSI3NDcyIiBmaWxsPSIjMzMzMzMzIj48L3BhdGg+PC9zdmc+;" parent="1" vertex="1">
          <mxGeometry x="250" y="127" width="16" height="16" as="geometry" />
        </mxCell>
        <mxCell id="D_XdAdszSeVdfn9byeem-1" value="Git" style="text;html=1;strokeColor=none;fillColor=none;align=left;verticalAlign=middle;whiteSpace=wrap;rounded=0;fontFamily=Inter;fontSize=15;fontColor=#404964;fontStyle=0" parent="1" vertex="1">
          <mxGeometry x="61" y="426" width="87" height="23" as="geometry" />
        </mxCell>
        <mxCell id="D_XdAdszSeVdfn9byeem-2" value="Java" style="text;html=1;strokeColor=none;fillColor=none;align=left;verticalAlign=middle;whiteSpace=wrap;rounded=0;fontFamily=Inter;fontSize=15;fontColor=#404964;fontStyle=0" parent="1" vertex="1">
          <mxGeometry x="61" y="453" width="87" height="23" as="geometry" />
        </mxCell>
        <mxCell id="D_XdAdszSeVdfn9byeem-3" value="PHP" style="text;html=1;strokeColor=none;fillColor=none;align=left;verticalAlign=middle;whiteSpace=wrap;rounded=0;fontFamily=Inter;fontSize=15;fontColor=#404964;fontStyle=0" parent="1" vertex="1">
          <mxGeometry x="61" y="480" width="87" height="23" as="geometry" />
        </mxCell>
        <mxCell id="D_XdAdszSeVdfn9byeem-4" value="Python" style="text;html=1;strokeColor=none;fillColor=none;align=left;verticalAlign=middle;whiteSpace=wrap;rounded=0;fontFamily=Inter;fontSize=15;fontColor=#404964;fontStyle=0" parent="1" vertex="1">
          <mxGeometry x="61" y="507" width="87" height="23" as="geometry" />
        </mxCell>
        <mxCell id="D_XdAdszSeVdfn9byeem-5" value="JavaScript" style="text;html=1;strokeColor=none;fillColor=none;align=left;verticalAlign=middle;whiteSpace=wrap;rounded=0;fontFamily=Inter;fontSize=15;fontColor=#404964;fontStyle=0" parent="1" vertex="1">
          <mxGeometry x="60" y="534" width="87" height="23" as="geometry" />
        </mxCell>
        <mxCell id="D_XdAdszSeVdfn9byeem-6" value="" style="rounded=0;whiteSpace=wrap;html=1;fontFamily=Inter;fontSize=15;fontColor=#404964;strokeColor=none;fillColor=#57607B;aspect=fixed;" parent="1" vertex="1">
          <mxGeometry x="176" y="436" width="5" height="5" as="geometry" />
        </mxCell>
        <mxCell id="D_XdAdszSeVdfn9byeem-7" value="" style="rounded=0;whiteSpace=wrap;html=1;fontFamily=Inter;fontSize=15;fontColor=#404964;strokeColor=none;fillColor=#57607B;aspect=fixed;" parent="1" vertex="1">
          <mxGeometry x="196" y="436" width="5" height="5" as="geometry" />
        </mxCell>
        <mxCell id="D_XdAdszSeVdfn9byeem-8" value="" style="rounded=0;whiteSpace=wrap;html=1;fontFamily=Inter;fontSize=15;fontColor=#404964;strokeColor=none;fillColor=#57607B;aspect=fixed;" parent="1" vertex="1">
          <mxGeometry x="216" y="436" width="5" height="5" as="geometry" />
        </mxCell>
        <mxCell id="D_XdAdszSeVdfn9byeem-9" value="" style="rounded=0;whiteSpace=wrap;html=1;fontFamily=Inter;fontSize=15;fontColor=#404964;strokeColor=none;fillColor=#57607B;aspect=fixed;" parent="1" vertex="1">
          <mxGeometry x="236" y="436" width="5" height="5" as="geometry" />
        </mxCell>
        <mxCell id="D_XdAdszSeVdfn9byeem-10" value="" style="rounded=0;whiteSpace=wrap;html=1;fontFamily=Inter;fontSize=15;fontColor=#404964;strokeColor=none;fillColor=#57607B;aspect=fixed;" parent="1" vertex="1">
          <mxGeometry x="256" y="436" width="5" height="5" as="geometry" />
        </mxCell>
        <mxCell id="D_XdAdszSeVdfn9byeem-11" value="" style="rounded=0;whiteSpace=wrap;html=1;fontFamily=Inter;fontSize=15;fontColor=#404964;strokeColor=none;fillColor=#57607B;aspect=fixed;" parent="1" vertex="1">
          <mxGeometry x="176" y="462" width="5" height="5" as="geometry" />
        </mxCell>
        <mxCell id="D_XdAdszSeVdfn9byeem-12" value="" style="rounded=0;whiteSpace=wrap;html=1;fontFamily=Inter;fontSize=15;fontColor=#404964;strokeColor=none;fillColor=#57607B;aspect=fixed;" parent="1" vertex="1">
          <mxGeometry x="196" y="462" width="5" height="5" as="geometry" />
        </mxCell>
        <mxCell id="D_XdAdszSeVdfn9byeem-13" value="" style="rounded=0;whiteSpace=wrap;html=1;fontFamily=Inter;fontSize=15;fontColor=#404964;strokeColor=none;fillColor=#57607B;aspect=fixed;" parent="1" vertex="1">
          <mxGeometry x="216" y="462" width="5" height="5" as="geometry" />
        </mxCell>
        <mxCell id="D_XdAdszSeVdfn9byeem-14" value="" style="rounded=0;whiteSpace=wrap;html=1;fontFamily=Inter;fontSize=15;fontColor=#404964;strokeColor=none;fillColor=#57607B;aspect=fixed;" parent="1" vertex="1">
          <mxGeometry x="236" y="462" width="5" height="5" as="geometry" />
        </mxCell>
        <mxCell id="D_XdAdszSeVdfn9byeem-15" value="" style="rounded=0;whiteSpace=wrap;html=1;fontFamily=Inter;fontSize=15;fontColor=#666666;strokeColor=none;fillColor=#BCC4D1;aspect=fixed;" parent="1" vertex="1">
          <mxGeometry x="256" y="462" width="5" height="5" as="geometry" />
        </mxCell>
        <mxCell id="D_XdAdszSeVdfn9byeem-16" value="" style="rounded=0;whiteSpace=wrap;html=1;fontFamily=Inter;fontSize=15;fontColor=#404964;strokeColor=none;fillColor=#57607B;aspect=fixed;" parent="1" vertex="1">
          <mxGeometry x="176" y="489" width="5" height="5" as="geometry" />
        </mxCell>
        <mxCell id="D_XdAdszSeVdfn9byeem-17" value="" style="rounded=0;whiteSpace=wrap;html=1;fontFamily=Inter;fontSize=15;fontColor=#404964;strokeColor=none;fillColor=#57607B;aspect=fixed;" parent="1" vertex="1">
          <mxGeometry x="196" y="489" width="5" height="5" as="geometry" />
        </mxCell>
        <mxCell id="D_XdAdszSeVdfn9byeem-18" value="" style="rounded=0;whiteSpace=wrap;html=1;fontFamily=Inter;fontSize=15;fontColor=#404964;strokeColor=none;fillColor=#57607B;aspect=fixed;" parent="1" vertex="1">
          <mxGeometry x="216" y="489" width="5" height="5" as="geometry" />
        </mxCell>
        <mxCell id="D_XdAdszSeVdfn9byeem-19" value="" style="rounded=0;whiteSpace=wrap;html=1;fontFamily=Inter;fontSize=15;fontColor=#666666;strokeColor=none;fillColor=#57607B;aspect=fixed;" parent="1" vertex="1">
          <mxGeometry x="236" y="489" width="5" height="5" as="geometry" />
        </mxCell>
        <mxCell id="D_XdAdszSeVdfn9byeem-20" value="" style="rounded=0;whiteSpace=wrap;html=1;fontFamily=Inter;fontSize=15;fontColor=#666666;strokeColor=none;fillColor=#57607B;aspect=fixed;" parent="1" vertex="1">
          <mxGeometry x="256" y="489" width="5" height="5" as="geometry" />
        </mxCell>
        <mxCell id="D_XdAdszSeVdfn9byeem-21" value="" style="rounded=0;whiteSpace=wrap;html=1;fontFamily=Inter;fontSize=15;fontColor=#404964;strokeColor=none;fillColor=#57607B;aspect=fixed;" parent="1" vertex="1">
          <mxGeometry x="176" y="516" width="5" height="5" as="geometry" />
        </mxCell>
        <mxCell id="D_XdAdszSeVdfn9byeem-22" value="" style="rounded=0;whiteSpace=wrap;html=1;fontFamily=Inter;fontSize=15;fontColor=#404964;strokeColor=none;fillColor=#57607B;aspect=fixed;" parent="1" vertex="1">
          <mxGeometry x="196" y="516" width="5" height="5" as="geometry" />
        </mxCell>
        <mxCell id="D_XdAdszSeVdfn9byeem-23" value="" style="rounded=0;whiteSpace=wrap;html=1;fontFamily=Inter;fontSize=15;fontColor=#404964;strokeColor=none;fillColor=#57607B;aspect=fixed;" parent="1" vertex="1">
          <mxGeometry x="216" y="516" width="5" height="5" as="geometry" />
        </mxCell>
        <mxCell id="D_XdAdszSeVdfn9byeem-24" value="" style="rounded=0;whiteSpace=wrap;html=1;fontFamily=Inter;fontSize=15;fontColor=#666666;strokeColor=none;fillColor=#BCC4D1;aspect=fixed;" parent="1" vertex="1">
          <mxGeometry x="236" y="516" width="5" height="5" as="geometry" />
        </mxCell>
        <mxCell id="D_XdAdszSeVdfn9byeem-25" value="" style="rounded=0;whiteSpace=wrap;html=1;fontFamily=Inter;fontSize=15;fontColor=#666666;strokeColor=none;fillColor=#BCC4D1;aspect=fixed;" parent="1" vertex="1">
          <mxGeometry x="256" y="516" width="5" height="5" as="geometry" />
        </mxCell>
        <mxCell id="D_XdAdszSeVdfn9byeem-26" value="" style="rounded=0;whiteSpace=wrap;html=1;fontFamily=Inter;fontSize=15;fontColor=#404964;strokeColor=none;fillColor=#57607B;aspect=fixed;" parent="1" vertex="1">
          <mxGeometry x="176" y="543" width="5" height="5" as="geometry" />
        </mxCell>
        <mxCell id="D_XdAdszSeVdfn9byeem-27" value="" style="rounded=0;whiteSpace=wrap;html=1;fontFamily=Inter;fontSize=15;fontColor=#404964;strokeColor=none;fillColor=#57607B;aspect=fixed;" parent="1" vertex="1">
          <mxGeometry x="196" y="543" width="5" height="5" as="geometry" />
        </mxCell>
        <mxCell id="D_XdAdszSeVdfn9byeem-28" value="" style="rounded=0;whiteSpace=wrap;html=1;fontFamily=Inter;fontSize=15;fontColor=#666666;strokeColor=none;fillColor=#57607B;aspect=fixed;" parent="1" vertex="1">
          <mxGeometry x="216" y="543" width="5" height="5" as="geometry" />
        </mxCell>
        <mxCell id="D_XdAdszSeVdfn9byeem-29" value="" style="rounded=0;whiteSpace=wrap;html=1;fontFamily=Inter;fontSize=15;fontColor=#666666;strokeColor=none;fillColor=#57607B;aspect=fixed;" parent="1" vertex="1">
          <mxGeometry x="236" y="543" width="5" height="5" as="geometry" />
        </mxCell>
        <mxCell id="D_XdAdszSeVdfn9byeem-30" value="" style="rounded=0;whiteSpace=wrap;html=1;fontFamily=Inter;fontSize=15;fontColor=#666666;strokeColor=none;fillColor=#57607B;aspect=fixed;" parent="1" vertex="1">
          <mxGeometry x="256" y="543" width="5" height="5" as="geometry" />
        </mxCell>
        <mxCell id="csp5jKro6aII4pgKmo1C-38" value="一路向善短视频app接口开发" style="text;html=1;strokeColor=none;fillColor=none;align=left;verticalAlign=middle;whiteSpace=wrap;rounded=0;fontSize=15;fontFamily=Source Han Sans;fontStyle=1;fontColor=#404964;" parent="1" vertex="1">
          <mxGeometry x="303" y="1100" width="416" height="20" as="geometry" />
        </mxCell>
        <mxCell id="csp5jKro6aII4pgKmo1C-40" value="2020.3" style="text;html=1;strokeColor=none;fillColor=none;align=right;verticalAlign=middle;whiteSpace=wrap;rounded=0;fontFamily=Source Han Sans;fontSize=15;fontColor=#6D7684;fontStyle=0" parent="1" vertex="1">
          <mxGeometry x="643" y="1100" width="126" height="14" as="geometry" />
        </mxCell>
        <mxCell id="csp5jKro6aII4pgKmo1C-41" value="&lt;p style=&quot;line-height: 1.6;&quot;&gt;根据业务开发接口，实现第三方登录，视频随机播放，关注，私信等功能，app推送采用第三方平台，调用第三方sdk进行通知推送，视频储存在阿里云储存桶。&lt;/p&gt;" style="text;html=1;strokeColor=none;fillColor=none;align=left;verticalAlign=middle;rounded=0;fontFamily=Source Han Sans;fontSize=12;fontColor=#6D7684;fontStyle=0;whiteSpace=wrap;" parent="1" vertex="1">
          <mxGeometry x="309" y="1128" width="474" height="34.73" as="geometry" />
        </mxCell>
        <mxCell id="csp5jKro6aII4pgKmo1C-34" value="工程质量检测平台" style="text;html=1;strokeColor=none;fillColor=none;align=left;verticalAlign=middle;whiteSpace=wrap;rounded=0;fontSize=15;fontFamily=Source Han Sans;fontStyle=1;fontColor=#404964;" parent="1" vertex="1">
          <mxGeometry x="309" y="779.77" width="416" height="20" as="geometry" />
        </mxCell>
        <mxCell id="csp5jKro6aII4pgKmo1C-36" value="2022.8" style="text;html=1;strokeColor=none;fillColor=none;align=right;verticalAlign=middle;whiteSpace=wrap;rounded=0;fontFamily=Source Han Sans;fontSize=15;fontColor=#6D7684;fontStyle=0" parent="1" vertex="1">
          <mxGeometry x="729" y="781.77" width="46" height="14" as="geometry" />
        </mxCell>
        <mxCell id="csp5jKro6aII4pgKmo1C-37" value="&lt;p style=&quot;line-height: 1.6;&quot;&gt;后台基于java开发使用spring boot框架，关系型数据库采用MySQL，非关系型数据库采用Redis，消息队列使用Kafka。&lt;/p&gt;&lt;p style=&quot;line-height: 1.6;&quot;&gt;前端项目基于vue3开发，构建工具使用vite，ui框架采用element ui，状态管理采用pinia，语言使用typescript开发。&lt;/p&gt;" style="text;html=1;strokeColor=none;fillColor=none;align=left;verticalAlign=middle;whiteSpace=wrap;rounded=0;fontFamily=Source Han Sans;fontSize=12;fontColor=#6D7684;fontStyle=0" parent="1" vertex="1">
          <mxGeometry x="309" y="810" width="466" height="90" as="geometry" />
        </mxCell>
        <mxCell id="csp5jKro6aII4pgKmo1C-42" value="黑龙江省中药产业大数据综合服务平台" style="text;html=1;strokeColor=none;fillColor=none;align=left;verticalAlign=middle;whiteSpace=wrap;rounded=0;fontSize=15;fontFamily=Source Han Sans;fontStyle=1;fontColor=#404964;" parent="1" vertex="1">
          <mxGeometry x="309" y="920" width="416" height="20" as="geometry" />
        </mxCell>
        <mxCell id="csp5jKro6aII4pgKmo1C-43" value="2022.8" style="text;html=1;strokeColor=none;fillColor=none;align=right;verticalAlign=middle;whiteSpace=wrap;rounded=0;fontFamily=Source Han Sans;fontSize=15;fontColor=#6D7684;fontStyle=0" parent="1" vertex="1">
          <mxGeometry x="728" y="924.46" width="47" height="12.54" as="geometry" />
        </mxCell>
        <mxCell id="csp5jKro6aII4pgKmo1C-44" value="&lt;p style=&quot;line-height: 1.6;&quot;&gt;后端在ruoyi框架基础上进行开发，单体项目非微服务，简单crud业务，无复杂逻辑&lt;/p&gt;&lt;p style=&quot;line-height: 1.6;&quot;&gt;&lt;span style=&quot;background-color: initial;&quot;&gt;前端基于ruoyi框架的vue3框架开发，新增图表，及一些查询页面&lt;/span&gt;&lt;/p&gt;" style="text;html=1;strokeColor=none;fillColor=none;align=left;verticalAlign=middle;whiteSpace=wrap;rounded=0;fontFamily=Source Han Sans;fontSize=12;fontColor=#6D7684;fontStyle=0" parent="1" vertex="1">
          <mxGeometry x="308" y="950" width="466" height="35" as="geometry" />
        </mxCell>
        <mxCell id="AF2Ux_LV5sccvWK5wioI-1" value="赶马商城后端接口开发" style="text;html=1;strokeColor=none;fillColor=none;align=left;verticalAlign=middle;whiteSpace=wrap;rounded=0;fontSize=15;fontFamily=Source Han Sans;fontStyle=1;fontColor=#404964;" parent="1" vertex="1">
          <mxGeometry x="308" y="1002" width="416" height="20" as="geometry" />
        </mxCell>
        <mxCell id="AF2Ux_LV5sccvWK5wioI-2" value="2019.9" style="text;html=1;strokeColor=none;fillColor=none;align=right;verticalAlign=middle;whiteSpace=wrap;rounded=0;fontFamily=Source Han Sans;fontSize=15;fontColor=#6D7684;fontStyle=0" parent="1" vertex="1">
          <mxGeometry x="728" y="1002" width="47" height="14" as="geometry" />
        </mxCell>
        <mxCell id="-xOyAolYkLRZkem3QfIZ-2" value="昆明京挚互联网科技有限责任公司 - 研发工程师" style="text;html=1;strokeColor=none;fillColor=none;align=left;verticalAlign=middle;whiteSpace=wrap;rounded=0;fontSize=15;fontFamily=Source Han Sans;fontStyle=1;fontColor=#404964;" vertex="1" parent="1">
          <mxGeometry x="308" y="577.5" width="416" height="20" as="geometry" />
        </mxCell>
        <mxCell id="-xOyAolYkLRZkem3QfIZ-3" value="2018.10 - 2019.8" style="text;html=1;strokeColor=none;fillColor=none;align=right;verticalAlign=middle;whiteSpace=wrap;rounded=0;fontFamily=Source Han Sans;fontSize=15;fontColor=#6D7684;fontStyle=0" vertex="1" parent="1">
          <mxGeometry x="647" y="580" width="127" height="14" as="geometry" />
        </mxCell>
        <mxCell id="-xOyAolYkLRZkem3QfIZ-4" value="&lt;font style=&quot;font-size: 12px;&quot;&gt;&lt;span style=&quot;line-height: 1.6; font-size: 12px;&quot;&gt;昆明京挚互联网科技有限公司是一家初创公司，主营网络安全业务，在公司负责官网开发维护，服务器运维，公司论坛维护，python爬虫开发，渗透测试等。&lt;br&gt;&amp;nbsp; &amp;nbsp; •&amp;nbsp; 使用think PHP框架开发公司blog&lt;br&gt;&amp;nbsp; &amp;nbsp; •&amp;nbsp; 服务器日常运维&lt;br&gt;&amp;nbsp; &amp;nbsp; •&amp;nbsp; python爬取潜在客户信息，进行数据清洗&lt;br&gt;&amp;nbsp; &amp;nbsp; •&amp;nbsp; 对目标客户进行渗透测试，编写测试报告&lt;br&gt;&lt;/span&gt;&lt;/font&gt;" style="text;html=1;strokeColor=none;fillColor=none;align=left;verticalAlign=middle;whiteSpace=wrap;rounded=0;fontFamily=Source Han Sans;fontSize=12;fontColor=#6D7684;fontStyle=0" vertex="1" parent="1">
          <mxGeometry x="308" y="604.5" width="466" height="114" as="geometry" />
        </mxCell>
        <mxCell id="-xOyAolYkLRZkem3QfIZ-5" value="2020" style="text;html=1;strokeColor=none;fillColor=none;align=right;verticalAlign=middle;whiteSpace=wrap;rounded=0;fontFamily=Source Han Sans;fontSize=12;fontColor=#6D7684;fontStyle=0" vertex="1" parent="1">
          <mxGeometry x="232" y="625.5" width="30" height="20" as="geometry" />
        </mxCell>
        <mxCell id="-xOyAolYkLRZkem3QfIZ-6" value="第45届世界技能大赛黑龙江省选拔赛网站设计与开发项目第三名" style="text;html=1;strokeColor=none;fillColor=none;align=left;verticalAlign=middle;whiteSpace=wrap;rounded=0;fontFamily=Source Han Sans;fontSize=12;fontColor=#6D7684;fontStyle=0" vertex="1" parent="1">
          <mxGeometry x="60" y="666.5" width="143" height="55.5" as="geometry" />
        </mxCell>
        <mxCell id="-xOyAolYkLRZkem3QfIZ-7" value="2018" style="text;html=1;strokeColor=none;fillColor=none;align=right;verticalAlign=middle;whiteSpace=wrap;rounded=0;fontFamily=Source Han Sans;fontSize=12;fontColor=#6D7684;fontStyle=0" vertex="1" parent="1">
          <mxGeometry x="232" y="681" width="30" height="20" as="geometry" />
        </mxCell>
        <mxCell id="-xOyAolYkLRZkem3QfIZ-8" value="全国中等职业学院信息技术技能大赛网站建设与管理(CMS)赛项荣获二等奖" style="text;html=1;strokeColor=none;fillColor=none;align=left;verticalAlign=middle;whiteSpace=wrap;rounded=0;fontFamily=Source Han Sans;fontSize=12;fontColor=#6D7684;fontStyle=0" vertex="1" parent="1">
          <mxGeometry x="61" y="722" width="143" height="55.5" as="geometry" />
        </mxCell>
        <mxCell id="-xOyAolYkLRZkem3QfIZ-9" value="2017" style="text;html=1;strokeColor=none;fillColor=none;align=right;verticalAlign=middle;whiteSpace=wrap;rounded=0;fontFamily=Source Han Sans;fontSize=12;fontColor=#6D7684;fontStyle=0" vertex="1" parent="1">
          <mxGeometry x="233" y="736.5" width="30" height="20" as="geometry" />
        </mxCell>
        <mxCell id="-xOyAolYkLRZkem3QfIZ-10" value="2018年度劳动出版“技能雏鹰”奖学金" style="text;html=1;strokeColor=none;fillColor=none;align=left;verticalAlign=middle;whiteSpace=wrap;rounded=0;fontFamily=Source Han Sans;fontSize=12;fontColor=#6D7684;fontStyle=0" vertex="1" parent="1">
          <mxGeometry x="61" y="777.5" width="143" height="55.5" as="geometry" />
        </mxCell>
        <mxCell id="-xOyAolYkLRZkem3QfIZ-11" value="2018" style="text;html=1;strokeColor=none;fillColor=none;align=right;verticalAlign=middle;whiteSpace=wrap;rounded=0;fontFamily=Source Han Sans;fontSize=12;fontColor=#6D7684;fontStyle=0" vertex="1" parent="1">
          <mxGeometry x="233" y="792" width="30" height="20" as="geometry" />
        </mxCell>
        <mxCell id="-xOyAolYkLRZkem3QfIZ-12" value="第46届世界技能大赛中国赛区选拔赛网站设计与开发项目第九名" style="text;html=1;strokeColor=none;fillColor=none;align=left;verticalAlign=middle;whiteSpace=wrap;rounded=0;fontFamily=Source Han Sans;fontSize=12;fontColor=#6D7684;fontStyle=0" vertex="1" parent="1">
          <mxGeometry x="61" y="833" width="143" height="55.5" as="geometry" />
        </mxCell>
        <mxCell id="-xOyAolYkLRZkem3QfIZ-13" value="2021" style="text;html=1;strokeColor=none;fillColor=none;align=right;verticalAlign=middle;whiteSpace=wrap;rounded=0;fontFamily=Source Han Sans;fontSize=12;fontColor=#6D7684;fontStyle=0" vertex="1" parent="1">
          <mxGeometry x="232" y="842.5" width="30" height="20" as="geometry" />
        </mxCell>
        <mxCell id="-xOyAolYkLRZkem3QfIZ-17" value="&lt;p style=&quot;line-height: 1.6;&quot;&gt;根据业务需求对后端接口进行修改，优化接口速度，减少内存占用，使用Redis实现原子级秒杀，订单状态异步处理，计划任务优化，订单超时优化，app动态首页后台修改接口。&lt;/p&gt;" style="text;html=1;strokeColor=none;fillColor=none;align=left;verticalAlign=middle;whiteSpace=wrap;rounded=0;fontFamily=Source Han Sans;fontSize=12;fontColor=#6D7684;fontStyle=0" vertex="1" parent="1">
          <mxGeometry x="307" y="1032" width="466" height="55" as="geometry" />
        </mxCell>
        <mxCell id="-xOyAolYkLRZkem3QfIZ-19" value="关于" style="text;html=1;strokeColor=none;fillColor=none;align=left;verticalAlign=middle;whiteSpace=wrap;rounded=0;fontFamily=Source Han Sans;fontSize=21;fontColor=#13273E;fontStyle=1" vertex="1" parent="1">
          <mxGeometry x="60" y="189" width="70" height="30" as="geometry" />
        </mxCell>
        <mxCell id="-xOyAolYkLRZkem3QfIZ-20" value="" style="endArrow=none;html=1;rounded=0;fontFamily=宋体-简;fontSize=16;fontColor=#2B4259;strokeColor=#404964;" edge="1" parent="1">
          <mxGeometry width="50" height="50" relative="1" as="geometry">
            <mxPoint x="61" y="221" as="sourcePoint" />
            <mxPoint x="261" y="221" as="targetPoint" />
          </mxGeometry>
        </mxCell>
        <mxCell id="-xOyAolYkLRZkem3QfIZ-21" value="喜欢学习新技术，" style="text;html=1;strokeColor=none;fillColor=none;align=left;verticalAlign=middle;whiteSpace=wrap;rounded=0;fontFamily=Source Han Sans;fontSize=12;fontColor=#6D7684;fontStyle=0" vertex="1" parent="1">
          <mxGeometry x="61" y="230" width="199" height="55.5" as="geometry" />
        </mxCell>
      </root>
    </mxGraphModel>
  </diagram>
</mxfile>
